{"title":"[HD 720p Ita Eng] The enforcer - Cielo di piombo ispettore Calla","uid":5391730,"size":4832082487,"categoryP":"video","categoryS":"hd___movies","magnet":"?xt=urn:btih:6cfdf6989629b8c8b0e728662957bb61d8e6d712&amp;dn=%5BHD+720p+Ita+Eng%5D+The+enforcer+-+Cielo+di+piombo+ispettore+Calla&amp;tr=udp%3A%2F%2Ftracker.openbittorrent.com%3A80&amp;tr=udp%3A%2F%2Fopen.demonii.com%3A1337&amp;tr=udp%3A%2F%2Ftracker.coppersurfer.tk%3A6969&amp;tr=udp%3A%2F%2Fexodus.desync.com%3A6969","seeders":0,"leechers":4,"uploader":"Collerom","files":1,"time":1267090501,"description":"Dual audio\nPrimary Italiano\nSecondary English\n &lt;a href=&quot;\nhttp://img713.imageshack.us/i/1976theenforceritaengmkttj.png/&quot; rel=&quot;nofollow&quot; target=&quot;_NEW&quot;&gt;\nhttp://img713.imageshack.us/i/1976theenforceritaengmkttj.png/&lt;/a&gt;\nhttp://img196.imageshack.us/i/1976theenforceritaengmk.png/\nhttp://img8.imageshack.us/i/1976theenforceritaengmk.png/\n\n\nGeneral\nComplete name                    : C:\\Dirty Harry1976 The.Enforcer ITA ENG.mkv\nFormat                           : Matroska\nFile size                        : 4.50 GiB\nDuration                         : 1h 36mn\nOverall bit rate                 : 6 670 Kbps\nEncoded date                     : UTC 2010-02-10 13:28:38\nWriting application              : mkvmerge v3.1.0 ('Happy up here') built on Jan 19 2010 12:09:24\nWriting library                  : libebml v0.7.9 + libmatroska v0.8.1\n\nVideo\nID                               : 1\nFormat                           : AVC\nFormat/Info                      : Advanced Video Codec\nFormat profile                   : &lt;a class=&quot;__cf_email__&quot; href=&quot;/cdn-cgi/l/email-protection&quot; data-cfemail=&quot;8ac2e3ede2cac6bfa4bb&quot;&gt;[email&amp;#160;protected]&lt;/a&gt;&lt;script cf-hash='f9e31' type=&quot;text/javascript&quot;&gt;\n/* &lt;![CDATA[ */!function(){try{var t=&quot;currentScript&quot;in document?document.currentScript:function(){for(var t=document.getElementsByTagName(&quot;script&quot;),e=t.length;e--;)if(t[e].getAttribute(&quot;cf-hash&quot;))return t[e]}();if(t&amp;&amp;t.previousSibling){var e,r,n,i,c=t.previousSibling,a=c.getAttribute(&quot;data-cfemail&quot;);if(a){for(e=&quot;&quot;,r=parseInt(a.substr(0,2),16),n=2;a.length-n;n+=2)i=parseInt(a.substr(n,2),16)^r,e+=String.fromCharCode(i);e=document.createTextNode(e),c.parentNode.replaceChild(e,c)}}}catch(u){}}();/* ]]&gt; */&lt;/script&gt;\nFormat settings, CABAC           : Yes\nFormat settings, ReFrames        : 5 frames\nMuxing mode                      : Container profile=&lt;a class=&quot;__cf_email__&quot; href=&quot;/cdn-cgi/l/email-protection&quot; data-cfemail=&quot;efba818481809881afdac1de&quot;&gt;[email&amp;#160;protected]&lt;/a&gt;&lt;script cf-hash='f9e31' type=&quot;text/javascript&quot;&gt;\n/* &lt;![CDATA[ */!function(){try{var t=&quot;currentScript&quot;in document?document.currentScript:function(){for(var t=document.getElementsByTagName(&quot;script&quot;),e=t.length;e--;)if(t[e].getAttribute(&quot;cf-hash&quot;))return t[e]}();if(t&amp;&amp;t.previousSibling){var e,r,n,i,c=t.previousSibling,a=c.getAttribute(&quot;data-cfemail&quot;);if(a){for(e=&quot;&quot;,r=parseInt(a.substr(0,2),16),n=2;a.length-n;n+=2)i=parseInt(a.substr(n,2),16)^r,e+=String.fromCharCode(i);e=document.createTextNode(e),c.parentNode.replaceChild(e,c)}}}catch(u){}}();/* ]]&gt; */&lt;/script&gt;\nCodec ID                         : V_MPEG4/ISO/AVC\nDuration                         : 1h 36mn\nBit rate                         : 5 705 Kbps\nNominal bit rate                 : 5 835 Kbps\nWidth                            : 1 280 pixels\nHeight                           : 528 pixels\nDisplay aspect ratio             : 2.40:1\nFrame rate                       : 23.976 fps\n\nAudio #1\nID                               : 2\nFormat                           : AC-3\nFormat/Info                      : Audio Coding 3\nCodec ID                         : A_AC3\nDuration                         : 1h 36mn\nBit rate mode                    : Constant\nBit rate                         : 192 Kbps\nChannel(s)                       : 2 channels\nChannel positions                : L R\nSampling rate                    : 48.0 KHz\nVideo delay                      : 11s 500ms\nStream size                      : 133 MiB (3%)\nTitle                            : ITA Ac3 192kbps\n\nAudio #2\nID                               : 3\nFormat                           : AC-3\nFormat/Info                      : Audio Coding 3\nCodec ID                         : A_AC3\nDuration                         : 1h 36mn\nBit rate mode                    : Constant\nBit rate                         : 640 Kbps\nChannel(s)                       : 6 channels\nChannel positions                : Front: L C R, Surround: L R, LFE\nSampling rate                    : 48.0 KHz\nStream size                      : 442 MiB (10%)\n","torrent":{"xt":"urn:btih:6cfdf6989629b8c8b0e728662957bb61d8e6d712","amp;dn":"%5BHD+720p+Ita+Eng%5D+The+enforcer+-+Cielo+di+piombo+ispettore+Calla","amp;tr":["udp%3A%2F%2Ftracker.openbittorrent.com%3A80","udp%3A%2F%2Fopen.demonii.com%3A1337","udp%3A%2F%2Ftracker.coppersurfer.tk%3A6969","udp%3A%2F%2Fexodus.desync.com%3A6969"],"infoHash":"6cfdf6989629b8c8b0e728662957bb61d8e6d712","infoHashBuffer":{"type":"Buffer","data":[108,253,246,152,150,41,184,200,176,231,40,102,41,87,187,97,216,230,215,18]},"announce":[],"urlList":[]}}